<svg aria-hidden="true" style="position: absolute; width: 0; height: 0; overflow: hidden;" version="1.1" xmlns="http://www.w3.org/2000/svg" xmlns:xlink="http://www.w3.org/1999/xlink">
<defs>
<symbol id="icon-search" viewBox="0 0 26 26">
<path data-v-45604a19="" d="M21.249 12.9725C19.0839 15.1376 15.671 15.2661 13.3591 13.3762L12.5151 12.5321C10.6252 10.2202 10.7536 6.78899 12.9187 4.6422C15.2123 2.34862 18.9554 2.34862 21.249 4.6422C23.5609 6.93578 23.5609 10.6606 21.249 12.9725ZM23.2857 15.1009C26.7353 11.6514 26.7353 6.05505 23.2857 2.58716C19.8362 -0.862386 14.2398 -0.862386 10.772 2.58716C7.67104 5.68807 7.35911 10.5138 9.81783 13.9633L0.441681 23.3578C-0.127126 23.9266 -0.127126 24.8624 0.441681 25.4495C1.01049 26.0184 1.94627 26.0184 2.53342 25.4495L11.9279 16.055C15.3775 18.5138 20.2031 18.1835 23.2857 15.1009Z" fill="#fff" fill-opacity="0.8"></path>
</symbol>
<symbol id="icon-arrow" viewBox="0 0 32 32">
<path fill="#fff" style="fill: var(--color1, #fff)" d="M9 18c0.278 0 0.555 0.116 0.753 0.341l6.247 7.14 6.247-7.14c0.364-0.416 0.995-0.458 1.411-0.094s0.458 0.995 0.094 1.411l-7 8c-0.19 0.217-0.464 0.341-0.753 0.341s-0.563-0.125-0.753-0.341l-7-8c-0.364-0.416-0.322-1.047 0.094-1.411 0.19-0.166 0.424-0.247 0.658-0.247z"></path>
</symbol>
<symbol id="icon-carousel_left" viewBox="0 0 477.175 477.175">
<path fill="#fff" style="fill: var(--color1, #fff)" d="M145.188,238.575l215.5-215.5c5.3-5.3,5.3-13.8,0-19.1s-13.8-5.3-19.1,0l-225.1,225.1c-5.3,5.3-5.3,13.8,0,19.1l225.1,225   c2.6,2.6,6.1,4,9.5,4s6.9-1.3,9.5-4c5.3-5.3,5.3-13.8,0-19.1L145.188,238.575z" />
</symbol>
<symbol id="icon-carousel_right" viewBox="0 0 477.175 477.175">
<path fill="#fff" style="fill: var(--color1, #fff)" d="M360.731,229.075l-225.1-225.1c-5.3-5.3-13.8-5.3-19.1,0s-5.3,13.8,0,19.1l215.5,215.5l-215.5,215.5   c-5.3,5.3-5.3,13.8,0,19.1c2.6,2.6,6.1,4,9.5,4c3.4,0,6.9-1.3,9.5-4l225.1-225.1C365.931,242.875,365.931,234.275,360.731,229.075z   " />
</symbol>
                       
</defs>
</svg>