<svg width="121" height="66" viewBox="0 0 121 66" fill="none" xmlns="http://www.w3.org/2000/svg">
<path d="M63.0466 0H53.8849H43.0356H36.4055H24.4712H18.6849C8.5589 0 0.120548 7.6449 0 17.2296H15.9123V42.7887H16.0329V47.4669C16.0329 57.1656 23.8685 65.1528 34.1151 65.1528V65.0387V65.1528V18.5988V17.2296H40.7452C40.9863 7.6449 52.8 0 63.0466 0Z" fill="white"/>
<path d="M71.2439 0H65.6987H63.6494H60.8768C50.7507 0 40.5042 7.75901 40.2631 17.2296C40.2631 17.3437 40.2631 17.4578 40.2631 17.686V47.581C40.2631 57.2797 48.0987 65.2669 58.4658 65.2669H70.6411C81.0083 65.2669 86.674 57.2797 86.674 47.581V31.7207L71.2439 0ZM68.5918 46.4399C68.5918 49.0643 66.3014 51.2323 63.5288 51.3464H63.6494H63.2877H63.4083C60.6357 51.2323 58.3453 49.0643 58.3453 46.4399V19.8539C58.3453 17.2296 60.6357 15.0616 63.4083 14.9475H63.2877H63.6494H63.5288C66.3014 15.0616 68.5918 17.2296 68.5918 19.8539V46.4399Z" fill="white"/>
<path d="M120.307 24.8745V17.686C120.307 8.10132 112.592 0.114103 102.466 0H102.104L94.5096 13.236L86.7945 0H70.2794L70.8822 1.25513L86.6739 32.063L94.389 47.1246L101.984 31.2642V40.2784V40.5066V42.2181V47.581C101.984 57.1656 109.94 65.0387 120.066 65.1528H120.186V40.1643L120.307 24.8745Z" fill="white"/>
</svg>
